<svg width="200" height="200" viewBox="0 0 200 200" fill="none" xmlns="http://www.w3.org/2000/svg">
  <!-- Background circle with gradient -->
  <defs>
    <linearGradient id="bgGradient" x1="0%" y1="0%" x2="100%" y2="100%">
      <stop offset="0%" style="stop-color:#1DB954;stop-opacity:1" />
      <stop offset="50%" style="stop-color:#1ed760;stop-opacity:1" />
      <stop offset="100%" style="stop-color:#1DB954;stop-opacity:1" />
    </linearGradient>
    <linearGradient id="aiGradient" x1="0%" y1="0%" x2="100%" y2="100%">
      <stop offset="0%" style="stop-color:#ffffff;stop-opacity:1" />
      <stop offset="100%" style="stop-color:#f0f0f0;stop-opacity:1" />
    </linearGradient>
    <linearGradient id="musicGradient" x1="0%" y1="0%" x2="100%" y2="100%">
      <stop offset="0%" style="stop-color:#191414;stop-opacity:1" />
      <stop offset="100%" style="stop-color:#333333;stop-opacity:1" />
    </linearGradient>
  </defs>
  
  <!-- Main background circle -->
  <circle cx="100" cy="100" r="95" fill="url(#bgGradient)" stroke="#ffffff" stroke-width="2"/>
  
  <!-- AI Brain/Neural Network Pattern -->
  <g opacity="0.8">
    <!-- Neural network nodes -->
    <circle cx="70" cy="70" r="4" fill="url(#aiGradient)"/>
    <circle cx="130" cy="70" r="4" fill="url(#aiGradient)"/>
    <circle cx="70" cy="130" r="4" fill="url(#aiGradient)"/>
    <circle cx="130" cy="130" r="4" fill="url(#aiGradient)"/>
    <circle cx="100" cy="100" r="6" fill="url(#aiGradient)"/>
    
    <!-- Neural network connections -->
    <line x1="70" y1="70" x2="100" y2="100" stroke="url(#aiGradient)" stroke-width="2" opacity="0.6"/>
    <line x1="130" y1="70" x2="100" y2="100" stroke="url(#aiGradient)" stroke-width="2" opacity="0.6"/>
    <line x1="70" y1="130" x2="100" y2="100" stroke="url(#aiGradient)" stroke-width="2" opacity="0.6"/>
    <line x1="130" y1="130" x2="100" y2="100" stroke="url(#aiGradient)" stroke-width="2" opacity="0.6"/>
    <line x1="70" y1="70" x2="130" y2="70" stroke="url(#aiGradient)" stroke-width="1" opacity="0.4"/>
    <line x1="70" y1="130" x2="130" y2="130" stroke="url(#aiGradient)" stroke-width="1" opacity="0.4"/>
  </g>
  
  <!-- Music Note Elements -->
  <g transform="translate(100, 100)">
    <!-- Musical note 1 -->
    <g transform="translate(-25, -20)">
      <ellipse cx="0" cy="0" rx="3" ry="8" fill="url(#musicGradient)" transform="rotate(15)"/>
      <line x1="3" y1="-8" x2="3" y2="-15" stroke="url(#musicGradient)" stroke-width="2"/>
      <circle cx="3" cy="-15" r="2" fill="url(#musicGradient)"/>
    </g>
    
    <!-- Musical note 2 -->
    <g transform="translate(25, -15)">
      <ellipse cx="0" cy="0" rx="3" ry="8" fill="url(#musicGradient)" transform="rotate(-15)"/>
      <line x1="-3" y1="-8" x2="-3" y2="-15" stroke="url(#musicGradient)" stroke-width="2"/>
      <circle cx="-3" cy="-15" r="2" fill="url(#musicGradient)"/>
    </g>
    
    <!-- Musical note 3 -->
    <g transform="translate(0, 25)">
      <ellipse cx="0" cy="0" rx="3" ry="8" fill="url(#musicGradient)" transform="rotate(0)"/>
      <line x1="3" y1="-8" x2="3" y2="-15" stroke="url(#musicGradient)" stroke-width="2"/>
      <circle cx="3" cy="-15" r="2" fill="url(#musicGradient)"/>
    </g>
  </g>
  
  <!-- Sound waves emanating from center -->
  <g opacity="0.3">
    <circle cx="100" cy="100" r="15" fill="none" stroke="url(#aiGradient)" stroke-width="1"/>
    <circle cx="100" cy="100" r="25" fill="none" stroke="url(#aiGradient)" stroke-width="1"/>
    <circle cx="100" cy="100" r="35" fill="none" stroke="url(#aiGradient)" stroke-width="1"/>
  </g>
  
  <!-- AI Circuit Pattern -->
  <g opacity="0.4">
    <!-- Circuit lines -->
    <rect x="40" y="40" width="20" height="2" fill="url(#aiGradient)"/>
    <rect x="140" y="40" width="20" height="2" fill="url(#aiGradient)"/>
    <rect x="40" y="158" width="20" height="2" fill="url(#aiGradient)"/>
    <rect x="140" y="158" width="20" height="2" fill="url(#aiGradient)"/>
    
    <!-- Circuit corners -->
    <rect x="40" y="40" width="2" height="20" fill="url(#aiGradient)"/>
    <rect x="158" y="40" width="2" height="20" fill="url(#aiGradient)"/>
    <rect x="40" y="140" width="2" height="20" fill="url(#aiGradient)"/>
    <rect x="158" y="140" width="2" height="20" fill="url(#aiGradient)"/>
  </g>
</svg>
